<svg width="49" height="16" viewBox="0 0 49 16" fill="none" xmlns="http://www.w3.org/2000/svg">
<path d="M24.996 12V3.6H28.38C28.948 3.6 29.428 3.704 29.82 3.912C30.22 4.112 30.52 4.388 30.72 4.74C30.928 5.084 31.032 5.48 31.032 5.928C31.032 6.472 30.876 6.948 30.564 7.356C30.252 7.764 29.8 8.036 29.208 8.172L31.068 12H30.468L28.656 8.256H25.548V12H24.996ZM25.548 7.74H28.344C29.032 7.74 29.556 7.568 29.916 7.224C30.284 6.872 30.468 6.44 30.468 5.928C30.468 5.408 30.284 4.976 29.916 4.632C29.556 4.288 29.032 4.116 28.344 4.116H25.548V7.74ZM36.3949 12.132C35.8029 12.132 35.2469 12.024 34.7269 11.808C34.2149 11.584 33.7629 11.276 33.3709 10.884C32.9789 10.484 32.6709 10.024 32.4469 9.504C32.2309 8.976 32.1229 8.408 32.1229 7.8C32.1229 7.192 32.2309 6.628 32.4469 6.108C32.6709 5.58 32.9789 5.12 33.3709 4.728C33.7629 4.328 34.2149 4.02 34.7269 3.804C35.2469 3.58 35.8029 3.468 36.3949 3.468C36.9869 3.468 37.5389 3.58 38.0509 3.804C38.5709 4.02 39.0269 4.328 39.4189 4.728C39.8109 5.12 40.1149 5.58 40.3309 6.108C40.5549 6.628 40.6669 7.192 40.6669 7.8C40.6669 8.408 40.5549 8.976 40.3309 9.504C40.1149 10.024 39.8109 10.484 39.4189 10.884C39.0269 11.276 38.5709 11.584 38.0509 11.808C37.5389 12.024 36.9869 12.132 36.3949 12.132ZM36.3949 11.616C36.9149 11.616 37.3989 11.52 37.8469 11.328C38.3029 11.128 38.6989 10.856 39.0349 10.512C39.3709 10.168 39.6309 9.764 39.8149 9.3C40.0069 8.836 40.1029 8.336 40.1029 7.8C40.1029 7.264 40.0069 6.764 39.8149 6.3C39.6309 5.836 39.3709 5.432 39.0349 5.088C38.6989 4.744 38.3029 4.476 37.8469 4.284C37.3989 4.084 36.9149 3.984 36.3949 3.984C35.8749 3.984 35.3869 4.084 34.9309 4.284C34.4829 4.476 34.0909 4.744 33.7549 5.088C33.4189 5.432 33.1549 5.836 32.9629 6.3C32.7789 6.764 32.6869 7.264 32.6869 7.8C32.6869 8.336 32.7789 8.836 32.9629 9.3C33.1549 9.764 33.4189 10.168 33.7549 10.512C34.0909 10.856 34.4829 11.128 34.9309 11.328C35.3869 11.52 35.8749 11.616 36.3949 11.616ZM42.2343 12V3.6H45.6303C46.1823 3.6 46.6583 3.696 47.0583 3.888C47.4583 4.08 47.7623 4.352 47.9703 4.704C48.1863 5.048 48.2943 5.456 48.2943 5.928C48.2943 6.4 48.1863 6.816 47.9703 7.176C47.7623 7.528 47.4583 7.804 47.0583 8.004C46.6583 8.196 46.1823 8.292 45.6303 8.292H42.7863V12H42.2343ZM42.7863 7.776H45.6063C46.2943 7.776 46.8183 7.608 47.1783 7.272C47.5463 6.936 47.7303 6.488 47.7303 5.928C47.7303 5.384 47.5463 4.948 47.1783 4.62C46.8183 4.284 46.2943 4.116 45.6063 4.116H42.7863V7.776Z" fill="white"/>
<path d="M0.996 12V3.6H6.804V4.116H1.548V7.5H4.98V8.016H1.548V11.484H6.852V12H0.996ZM11.4465 12.132C10.8385 12.132 10.2705 12.02 9.7425 11.796C9.2225 11.572 8.7665 11.264 8.3745 10.872C7.9905 10.472 7.6865 10.012 7.4625 9.492C7.2465 8.964 7.1385 8.4 7.1385 7.8C7.1385 7.2 7.2465 6.64 7.4625 6.12C7.6865 5.592 7.9905 5.132 8.3745 4.74C8.7665 4.34 9.2225 4.028 9.7425 3.804C10.2705 3.58 10.8385 3.468 11.4465 3.468C11.8625 3.468 12.2625 3.516 12.6465 3.612C13.0385 3.708 13.4065 3.852 13.7505 4.044C14.0945 4.236 14.4065 4.476 14.6865 4.764L14.3265 5.184C13.9825 4.808 13.5505 4.516 13.0305 4.308C12.5185 4.092 11.9905 3.984 11.4465 3.984C10.9105 3.984 10.4145 4.084 9.9585 4.284C9.5105 4.476 9.1145 4.748 8.7705 5.1C8.4345 5.444 8.1705 5.848 7.9785 6.312C7.7945 6.768 7.7025 7.264 7.7025 7.8C7.7025 8.336 7.7945 8.836 7.9785 9.3C8.1705 9.756 8.4345 10.16 8.7705 10.512C9.1145 10.856 9.5105 11.128 9.9585 11.328C10.4145 11.52 10.9105 11.616 11.4465 11.616C11.9905 11.616 12.5185 11.508 13.0305 11.292C13.5505 11.076 13.9825 10.784 14.3265 10.416L14.6865 10.836C14.4065 11.124 14.0945 11.364 13.7505 11.556C13.4065 11.748 13.0385 11.892 12.6465 11.988C12.2625 12.084 11.8625 12.132 11.4465 12.132ZM19.8597 12.132C19.2677 12.132 18.7117 12.024 18.1917 11.808C17.6797 11.584 17.2277 11.276 16.8357 10.884C16.4437 10.484 16.1357 10.024 15.9117 9.504C15.6957 8.976 15.5877 8.408 15.5877 7.8C15.5877 7.192 15.6957 6.628 15.9117 6.108C16.1357 5.58 16.4437 5.12 16.8357 4.728C17.2277 4.328 17.6797 4.02 18.1917 3.804C18.7117 3.58 19.2677 3.468 19.8597 3.468C20.4517 3.468 21.0037 3.58 21.5157 3.804C22.0357 4.02 22.4917 4.328 22.8837 4.728C23.2757 5.12 23.5797 5.58 23.7957 6.108C24.0197 6.628 24.1317 7.192 24.1317 7.8C24.1317 8.408 24.0197 8.976 23.7957 9.504C23.5797 10.024 23.2757 10.484 22.8837 10.884C22.4917 11.276 22.0357 11.584 21.5157 11.808C21.0037 12.024 20.4517 12.132 19.8597 12.132ZM19.8597 11.616C20.3797 11.616 20.8637 11.52 21.3117 11.328C21.7677 11.128 22.1637 10.856 22.4997 10.512C22.8357 10.168 23.0957 9.764 23.2797 9.3C23.4717 8.836 23.5677 8.336 23.5677 7.8C23.5677 7.264 23.4717 6.764 23.2797 6.3C23.0957 5.836 22.8357 5.432 22.4997 5.088C22.1637 4.744 21.7677 4.476 21.3117 4.284C20.8637 4.084 20.3797 3.984 19.8597 3.984C19.3397 3.984 18.8517 4.084 18.3957 4.284C17.9477 4.476 17.5557 4.744 17.2197 5.088C16.8837 5.432 16.6197 5.836 16.4277 6.3C16.2437 6.764 16.1517 7.264 16.1517 7.8C16.1517 8.336 16.2437 8.836 16.4277 9.3C16.6197 9.764 16.8837 10.168 17.2197 10.512C17.5557 10.856 17.9477 11.128 18.3957 11.328C18.8517 11.52 19.3397 11.616 19.8597 11.616Z" fill="white"/>
<g clip-path="url(#clip0_313_28)">
<path d="M19.5982 12.1328C19.0062 12.1328 18.4502 12.0248 17.9302 11.8088C17.4182 11.5848 16.9662 11.2768 16.5742 10.8848C16.1822 10.4848 15.8742 10.0248 15.6502 9.50475C15.4342 8.97675 15.3262 8.40875 15.3262 7.80075C15.3262 7.19275 15.4342 6.62875 15.6502 6.10875C15.8742 5.58075 16.1822 5.12075 16.5742 4.72875C16.9662 4.32875 17.4182 4.02075 17.9302 3.80475C18.4502 3.58075 19.0062 3.46875 19.5982 3.46875C20.1902 3.46875 20.8322 3.49311 21.3442 3.71711C21.8642 3.93311 22.4208 4.25168 22.8128 4.65168C23.2048 5.04368 23.5677 5.51946 23.7837 6.04746C24.0077 6.56746 24.1398 7.20341 24.1398 7.81141C24.1398 8.41941 23.9967 9.06367 23.7727 9.59167C23.5567 10.1117 23.1634 10.6015 22.7714 11.0015C22.3794 11.3935 21.8454 11.665 21.3254 11.889C20.8134 12.105 20.1902 12.1328 19.5982 12.1328ZM19.5982 11.6168C20.1182 11.6168 20.6228 11.6073 21.0708 11.4153C21.5268 11.2153 22.0481 10.9727 22.3841 10.6287C22.7201 10.2847 23.0345 9.90252 23.2185 9.43852C23.4105 8.97452 23.5734 8.31894 23.5734 7.78294C23.5734 7.24694 23.4497 6.71193 23.2577 6.24793C23.0737 5.78393 22.705 5.32125 22.369 4.97725C22.033 4.63325 21.5682 4.41239 21.1122 4.22039C20.6642 4.02039 20.1182 3.98475 19.5982 3.98475C19.0782 3.98475 18.5902 4.08475 18.1342 4.28475C17.6862 4.47675 17.2942 4.74475 16.9582 5.08875C16.6222 5.43275 16.3582 5.83675 16.1662 6.30075C15.9822 6.76475 15.8902 7.26475 15.8902 7.80075C15.8902 8.33675 15.9822 8.83675 16.1662 9.30075C16.3582 9.76475 16.6222 10.1688 16.9582 10.5128C17.2942 10.8568 17.6862 11.1288 18.1342 11.3288C18.5902 11.5208 19.0782 11.6168 19.5982 11.6168Z" fill="#43615C"/>
</g>
<path d="M20 4V12" stroke="#43615C" stroke-width="0.5"/>
<defs>
<clipPath id="clip0_313_28">
<rect width="5.5" height="16" fill="white" transform="translate(19.75)"/>
</clipPath>
</defs>
</svg>
